<svg width="1137" height="425" xmlns="http://www.w3.org/2000/svg" xmlns:xlink="http://www.w3.org/1999/xlink" xml:space="preserve" overflow="hidden"><g transform="translate(-498 -1130)"><path d="M962.5 1479.5 687.5 1331 962.5 1182.5Z" stroke="#84B818" stroke-width="9.16667" stroke-linejoin="round" stroke-miterlimit="10" fill="none" fill-rule="evenodd"/><path d="M0 276 148.5 0 297 276Z" stroke="#84B818" stroke-width="9.16667" stroke-linejoin="round" stroke-miterlimit="10" stroke-dasharray="9.16667 9.16667" fill="none" fill-rule="evenodd" transform="matrix(-6.12323e-17 -1 -1 6.12323e-17 1238.5 1479.5)"/><path d="M0 668 148.5 0 297 668Z" stroke="#84B818" stroke-width="9.16667" stroke-linejoin="round" stroke-miterlimit="10" stroke-dasharray="36.6667 27.5 9.16667 27.5" fill="none" fill-rule="evenodd" transform="matrix(-6.12323e-17 -1 -1 6.12323e-17 1630.5 1479.5)"/><path d="M962.5 1479.5 846.5 1416.78 962.5 1362.5Z" stroke="#84B818" stroke-width="9.16667" stroke-linejoin="round" stroke-miterlimit="10" stroke-dasharray="73.3333 27.5" fill="none" fill-rule="evenodd"/><path d="M962.5 1479.5 846.5 1331 962.5 1182.5Z" stroke="#84B818" stroke-width="9.16667" stroke-linecap="square" stroke-linejoin="round" stroke-miterlimit="10" stroke-dasharray="27.5 9.16667" fill="none" fill-rule="evenodd"/><text font-family="Arial,Arial_MSFontService,sans-serif" font-weight="400" font-size="50" transform="matrix(1 0 0 1 1350.95 1195)">Expansion</text><text font-family="Arial,Arial_MSFontService,sans-serif" font-weight="400" font-size="50" transform="matrix(1 0 0 1 1102.12 1195)">Reflection</text><text font-family="Arial,Arial_MSFontService,sans-serif" font-weight="400" font-size="50" transform="matrix(1 0 0 1 686.803 1195)">Contraction</text><text font-family="Arial,Arial_MSFontService,sans-serif" font-weight="400" font-size="50" transform="matrix(1 0 0 1 528.779 1295)">Shrinking</text><path d="M788.706 1205.28 852.058 1267.68 849.645 1270.13 786.294 1207.72ZM857.236 1255.89 867.177 1284.99 837.937 1275.49Z"/><path d="M741.684 1269.25 852.306 1374.32 849.939 1376.81 739.316 1271.75ZM857.268 1362.44 867.739 1391.34 838.33 1382.38Z"/><path d="M1.55998-0.721501 26.4777 53.1539 23.3578 54.5969-1.55998 0.721501ZM35.4736 43.9434 34.5378 74.6751 10.5139 55.4875Z" transform="matrix(-1 0 0 1 1189.04 1206.5)"/><path d="M1.58409-0.666914 19.7765 42.5446 16.6083 43.8784-1.58409 0.666914ZM29.0867 33.652 27.0846 64.3327 3.74131 44.3226Z" transform="matrix(-1 0 0 1 1442.58 1206.5)"/><path d="M548.5 1524.21 707.493 1524.21C708.759 1524.21 709.785 1525.23 709.785 1526.5 709.785 1527.77 708.759 1528.79 707.493 1528.79L548.5 1528.79C547.234 1528.79 546.208 1527.77 546.208 1526.5 546.208 1525.23 547.234 1524.21 548.5 1524.21ZM702.91 1512.75 730.41 1526.5 702.91 1540.25Z"/><path d="M546.208 1526.41 546.209 1367.42C546.209 1366.15 547.235 1365.12 548.5 1365.12 549.766 1365.12 550.792 1366.15 550.792 1367.42L550.792 1526.41C550.792 1527.68 549.766 1528.7 548.5 1528.7 547.234 1528.7 546.208 1527.68 546.208 1526.41ZM534.75 1372 548.5 1344.5 562.25 1372Z"/></g></svg>